<?xml version="1.0" encoding="UTF-8"?>
<svg xmlns="http://www.w3.org/2000/svg" viewBox="0 0 100 100" width="1024" height="1024">
  <defs>
    <clipPath id="c"><circle cx="50" cy="50" r="50"/></clipPath>
  </defs>
  <g clip-path="url(#c)">
    <rect width="100" height="100" fill="#8B1A1A"/>
    
  <rect x="49" y="6" width="2" height="12" rx="0.5" fill="rgba(242,232,208,0.72)"/>
  <rect x="45" y="10" width="10" height="2" rx="0.5" fill="rgba(242,232,208,0.72)"/>
  <circle cx="50" cy="15" r="1.1" fill="rgba(242,232,208,0.38)"/>
  <circle cx="63" cy="21" r="0.8" fill="rgba(242,232,208,0.25)"/>
  <circle cx="68" cy="36" r="1.1" fill="rgba(242,232,208,0.38)"/>
  <circle cx="63" cy="51" r="0.8" fill="rgba(242,232,208,0.25)"/>
  <circle cx="37" cy="21" r="0.8" fill="rgba(242,232,208,0.25)"/>
  <circle cx="32" cy="36" r="1.1" fill="rgba(242,232,208,0.38)"/>
  <circle cx="37" cy="51" r="0.8" fill="rgba(242,232,208,0.25)"/>
  <circle cx="50" cy="36" r="18" fill="none" stroke="#F2E8D0" stroke-width="1.2"/>
  <circle cx="50" cy="36" r="14" fill="none" stroke="rgba(242,232,208,0.22)" stroke-width="0.3"/>
  <circle cx="50" cy="36" r="9" fill="none" stroke="rgba(184,150,12,0.45)" stroke-width="0.8"/>
  <circle cx="50" cy="36" r="3.5" fill="rgba(184,150,12,0.65)"/>
  <line x1="50" y1="34" x2="50" y2="38" stroke="rgba(139,26,26,0.4)" stroke-width="0.4"/>
  <line x1="48" y1="36" x2="52" y2="36" stroke="rgba(139,26,26,0.4)" stroke-width="0.4"/>
  <rect x="48.5" y="54" width="3" height="18" rx="1" fill="#F2E8D0"/>
  <rect x="43" y="72" width="14" height="2.5" rx="1" fill="rgba(242,232,208,0.78)"/>
  <rect x="39" y="75.5" width="22" height="2.5" rx="1" fill="rgba(242,232,208,0.65)"/>
  <rect x="35" y="79" width="30" height="2.5" rx="1.2" fill="rgba(242,232,208,0.52)"/>

  </g>
</svg>